<svg width="1024" height="1024" viewBox="0 0 1024 1024" fill="none" xmlns="http://www.w3.org/2000/svg">
<rect width="1024" height="1024" fill="#EAF8FF"/>
<path d="M925.532 456.569H916.015L834.322 306.476C821.235 282.191 795.855 267.46 768.492 267.46H648.729V220.084C648.729 185.845 620.969 158.375 587.261 158.375H101.468C67.3631 158.375 40 185.845 40 220.084V725.699C40 759.539 67.3631 787.408 101.468 787.408H156.194C165.315 833.59 206.161 868.625 254.939 868.625C303.716 868.625 344.563 833.59 353.684 787.408H587.261C588.054 787.408 588.451 787.408 589.244 787.408H675.696C684.817 833.59 725.663 868.625 774.441 868.625C823.218 868.625 864.064 833.59 873.185 787.408H926.722C960.033 787.408 987 760.336 987 726.893V518.676C987 484.437 959.24 456.569 925.532 456.569ZM587.261 725.699H346.149C330.286 690.664 295.389 666.379 254.542 666.379C213.696 666.379 178.798 690.664 162.936 725.699H101.071V220.084H586.865V725.699H587.261ZM768.096 328.771C773.251 328.771 778.01 331.558 780.389 335.937L846.219 456.569H648.729V328.771H768.096ZM925.532 725.699H866.047C850.185 690.664 815.287 666.379 774.441 666.379C733.594 666.379 698.696 690.664 682.834 725.699H650.315V518.277L925.532 518.676V725.699Z" fill="#0032A0"/>
<path d="M289.341 296.045C289.341 275.646 272.729 259.213 252.426 259.213C231.982 259.213 215.37 275.788 215.37 296.045V508.256H215.512C216.648 582.771 277.414 642.836 352.378 642.836C428.052 642.836 489.387 581.637 489.387 506.131C489.387 431.05 428.762 370.135 353.514 369.427V443.375C387.873 443.941 415.416 471.849 415.416 506.273C415.416 540.98 387.163 569.171 352.378 569.171C317.878 569.171 289.766 541.405 289.341 507.123V505.281C289.341 504.856 289.341 504.29 289.341 503.865H289.199L290.192 384.443L289.341 296.045Z" fill="#0033A1"/>
<path d="M324.409 454.424C299.563 454.424 279.402 434.308 279.402 409.517C279.402 384.726 299.563 364.61 324.409 364.61C349.255 364.61 369.416 384.726 369.416 409.517C369.416 434.308 349.255 454.424 324.409 454.424Z" fill="#4AC1E0"/>
<path d="M324.409 369.568C346.558 369.568 364.447 387.418 364.447 409.517C364.447 431.616 346.558 449.466 324.409 449.466C302.261 449.466 284.372 431.616 284.372 409.517C284.372 387.418 302.261 369.568 324.409 369.568ZM324.409 359.652C296.866 359.652 274.433 382.034 274.433 409.517C274.433 437 296.866 459.382 324.409 459.382C351.953 459.382 374.385 437 374.385 409.517C374.385 382.034 351.953 359.652 324.409 359.652Z" fill="white"/>
</svg>
